HIERARCHY
ROOT Hips
{
  OFFSET 0.382225 96.6805 0.598322
  CHANNELS 6 Xposition Yposition Zposition Zrotation Xrotation Yrotation
  JOINT Spine
  {
    OFFSET 10.8089 -0.851416 0
    CHANNELS 3 Zrotation Xrotation Yrotation
    JOINT Spine1
    {
      OFFSET 18.8753 3.80116 0
      CHANNELS 3 Zrotation Xrotation Yrotation
      JOINT Spine2
      {
        OFFSET 13.4073 0.420477 0
        CHANNELS 3 Zrotation Xrotation Yrotation
        JOINT LeftShoulder
        {
          OFFSET 11.8837 -2.73209 -3.78198
          CHANNELS 3 Zrotation Xrotation Yrotation
          JOINT LeftArm
          {
            OFFSET 15.7849 0 -2.35849e-005
            CHANNELS 3 Zrotation Xrotation Yrotation
            JOINT LeftForeArm
            {
              OFFSET 30.3399 0 0
              CHANNELS 3 Zrotation Xrotation Yrotation
              JOINT LeftHand
              {
                OFFSET 26.9751 0 2.45913e-005
                CHANNELS 3 Zrotation Xrotation Yrotation
                End Site
                {
                  OFFSET 8 0 0
                }
              }
            }
          }
        }
        JOINT RightShoulder
        {
          OFFSET 11.8838 -2.7321 3.782
          CHANNELS 3 Zrotation Xrotation Yrotation
          JOINT RightArm
          {
            OFFSET -15.7848 0 -1.07056e-005
            CHANNELS 3 Zrotation Xrotation Yrotation
            JOINT RightForeArm
            {
              OFFSET -30.34 1.02096e-005 -2.53607e-005
              CHANNELS 3 Zrotation Xrotation Yrotation
              JOINT RightHand
              {
                OFFSET -26.9752 2.07668e-005 0
                CHANNELS 3 Zrotation Xrotation Yrotation
                End Site
                {
                  OFFSET -8 0 0
                }
              }
            }
          }
        }
        JOINT Neck
        {
          OFFSET 16.5588 -0.355318 0
          CHANNELS 3 Zrotation Xrotation Yrotation
          JOINT Head
          {
            OFFSET 9.28361 0.364157 0
            CHANNELS 3 Zrotation Xrotation Yrotation
            End Site
            {
              OFFSET 0 0 0
            }
          }
        }
      }
    }
  }
  JOINT LeftUpLeg
  {
    OFFSET -1.44883 -0.531424 -9.00581
    CHANNELS 3 Zrotation Xrotation Yrotation
    JOINT LeftLeg
    {
      OFFSET -42.572 0.0788889 -0.011964
      CHANNELS 3 Zrotation Xrotation Yrotation
      JOINT LeftFoot
      {
        OFFSET -40.1967 0 0
        CHANNELS 3 Zrotation Xrotation Yrotation
				JOINT LeftToe
        {
          OFFSET -10.4538 -16.5779 0.0801563
          CHANNELS 3 Zrotation Xrotation Yrotation
          End Site
          {
            OFFSET -1.0 -1.0 0.0
          }
        }
      }
    }
  }
  JOINT RightUpLeg
  {
    OFFSET -1.44865 -0.531427 9.0058
    CHANNELS 3 Zrotation Xrotation Yrotation
    JOINT RightLeg
    {
      OFFSET 42.5723 -3.24776e-005 0
      CHANNELS 3 Zrotation Xrotation Yrotation
      JOINT RightFoot
      {
        OFFSET 40.1968 0 -1.14003e-005
        CHANNELS 3 Zrotation Xrotation Yrotation
				JOINT RightToe
        {
          OFFSET 10.4538 16.5778 -0.0801573
          CHANNELS 3 Zrotation Xrotation Yrotation
          End Site
          {
            OFFSET -1.0 -1.0 0.0
          }
        }
      }
    }
  }
}
MOTION
Frames:	8
Frame Time:	0.0333333
-166.196 69.1284 5.88584 85.4242 -42.736 -8.20015 -45.9061 -10.1773 1.57974 7.86516 0.269532 0.612425 2.7794 1.93418e-006 1.65929e-005 -3.75427 14.8226 90.6597 -31.8313 -8.22823 43.4875 -58.9 -0.214984 -16.3772 -125.816 -65.3452 -107.801 -179.67 6.749 87.7129 -11.9287 -2.87416 47.6569 -77.2333 -8.9856 -6.02555 -84.9135 -81.3205 -65.5002 -23.508 4.63459e-006 -5.90926e-006 44.3513 19.2355 1.8533 47.3947 -6.7334 -32.4081 -40.4819 -5.07352 -1.46081 -3.24171 -10.6231 22.1868 -90 0 0 -147.122 -11.082 -36.2205 -75.0614 0.275869 -5.87878 27.7576 18.4396 32.6672 -90 0 0
-163.276 68.7906 7.1816 85.6413 -37.2772 -8.70121 -41.7005 -1.15909 2.80991 11.8164 0.105379 0.218651 2.7794 1.93418e-006 1.65929e-005 -3.96046 13.3093 94.2272 -17.9063 -5.30193 43.4956 -55.532 -1.75343 -15.4615 -136.378 -61.9486 -117.445 -178.799 2.73638 86.6166 -19.6505 -19.7978 36.7934 -78.28 -8.96013 -6.11718 -98.8921 -81.8274 -77.7152 -23.508 4.63459e-006 -5.90926e-006 36.0993 10.3305 11.164 52.8224 -2.52888 -31.1748 -43.4894 -4.87075 -1.7712 -4.83872 -13.06 21.0855 -90 0 0 -151.98 -6.46176 -40.5458 -73.3702 0.0264906 -5.80636 30.2706 19.2359 31.8981 -90 0 0
-159.417 68.4427 8.10226 85.6616 -33.2963 -8.75292 -39.0734 7.00094 3.78461 14.8777 -0.0402763 -0.0781825 2.7794 1.93418e-006 1.65929e-005 -3.9037 12.5503 95.1421 -8.4517 11.5689 39.592 -50.4516 -3.94292 -13.9276 -139.133 -65.338 -120.832 -177.668 -5.30223 84.4701 -32.7757 -38.1005 17.7092 -79.2252 -8.93624 -6.19989 -95.4465 -83.4717 -71.9024 -23.508 4.63459e-006 -5.90926e-006 35.06 0.337061 18.8108 57.8832 0.580738 -31.1774 -50.1757 -4.31334 -2.39789 -2.9432 -13.1245 19.4506 -90 0 0 -155.765 -2.09325 -43.1487 -71.4567 -0.228012 -5.7121 30.6923 21.0598 29.536 -90 0 0
-154.626 68.3062 8.23804 83.4225 -30.1628 -9.96134 -36.9139 16.4716 6.42055 15.3498 -0.0641419 -0.123259 2.7794 1.93418e-006 1.65929e-005 -3.89733 13.4212 93.4755 -4.8998 30.3389 38.7514 -44.6046 -6.24648 -11.9564 -136.902 -67.7966 -120.82 -178.248 -10.2389 68.4494 -44.2996 -58.9884 1.98727 -84.5002 -8.77255 -6.65322 -101.804 -79.0439 -78.5683 -23.508 4.63459e-006 -5.90926e-006 43.7226 -8.25167 22.8171 63.1488 2.36835 -30.8178 -57.9894 -3.5945 -3.00695 0.0267696 -11.2412 17.8794 -90 0 0 -159.398 1.20834 -44.6849 -66.6854 -0.892913 -5.41847 28.9811 24.2421 28.0703 -90 0 0
-148.75 68.8179 7.58965 80.3297 -26.0522 -11.6117 -34.6358 24.1985 9.966 13.7365 0.0158662 0.0315696 2.7794 1.93418e-006 1.65929e-005 -3.60215 12.9857 91.423 7.93006 42.6637 39.7257 -48.8608 -4.59278 -13.4126 -138.616 -68.712 -124.042 -175.977 -6.81069 47.4301 -59.0538 -76.7246 -17.1836 -87.735 -8.65316 -6.92321 -110.493 -73.0443 -88.0172 -23.508 4.63459e-006 -5.90926e-006 55.4441 -16.4515 25.5758 66.5819 3.20897 -27.9217 -63.9219 -3.07708 -3.41005 5.86045 -11.6303 20.33 -90 0 0 -165.103 4.9052 -44.9346 -57.824 -2.06155 -4.70385 24.7912 30.0751 25.3274 -90 0 0
-141.553 70.024 6.372 79.1234 -22.6043 -12.8798 -34.3232 27.8174 14.8722 13.0892 0.0467609 0.0942888 2.7794 1.93418e-006 1.65929e-005 -2.81086 13.5146 84.4457 23.301 48.5661 49.0731 -56.5722 -1.2852 -15.7532 -146.319 -69.9386 -132.35 -172.399 -3.6871 40.2093 -80.5666 -76.382 -48.0862 -81.9126 -8.85458 -6.43303 -101.324 -69.5763 -80.3073 -23.508 4.63459e-006 -5.90926e-006 64.4164 -25.0154 27.5027 66.6659 5.90484 -24.5931 -69.248 -2.5467 -3.69705 12.8632 -11.1292 21.1842 -90 0 0 -172.131 9.08858 -44.8836 -46.4508 -3.40186 -3.47432 16.1451 36.9851 18.6972 -90 0 0
-134.092 71.756 4.12519 78.065 -21.0112 -12.6787 -31.3668 29.7242 16.7605 12.1083 0.0921686 0.190024 2.7794 1.93418e-006 1.65929e-005 -2.44697 14.6828 81.9176 25.9365 53.8014 62.946 -58.7162 -0.300541 -16.3294 -149.077 -67.6827 -134.326 -171.862 -1.23982 44.0955 -60.1744 -67.198 -36.968 -80.0921 -8.90966 -6.2758 -113.162 -69.3024 -92.6486 -23.508 4.63459e-006 -5.90926e-006 68.8223 -30.8547 27.0651 65.3582 8.69204 -22.4994 -74.6683 -1.84403 -3.91633 19.4395 -5.61608 18.0917 -90 0 0 -175.658 10.6172 -43.3764 -36.6421 -4.36108 -2.16777 -0.0555347 42.4404 7.68787 -90 0 0
-127.27 74.17 1.30153 77.9194 -21.0282 -10.6246 -27.5779 28.6624 13.8208 11.7532 0.108202 0.224863 2.7794 1.93418e-006 1.65929e-005 -3.99776 17.4657 90.0951 9.78336 47.225 77.2868 -56.8391 -1.16411 -15.8268 -145.988 -67.6677 -131.461 -173.039 -0.871638 49.1697 -34.4705 -59.1097 -12.3856 -86.2429 -8.70633 -6.79938 -110.774 -75.1977 -88.2318 -23.508 4.63459e-006 -5.90926e-006 71.2262 -30.4039 25.0235 61.258 9.98043 -20.1996 -76.8083 -1.39278 -3.98787 25.8653 -2.61703 14.9239 -90 0 0 -173.847 9.75626 -41.489 -33.5372 -4.57542 -1.82897 -14.8938 38.4182 -2.02204 -90 0 0
